<svg xmlns="http://www.w3.org/2000/svg" xmlns:xlink="http://www.w3.org/1999/xlink" width="60" zoomAndPan="magnify" viewBox="0 0 45 44.999999" height="60" preserveAspectRatio="xMidYMid meet" version="1.2"><defs/><g id="19ed6dfc0a"><g style="fill:#f82553;fill-opacity:1;"><g transform="translate(0.0000005, 33.440483)"><path style="stroke:none" d="M 0.765625 -20.5 C 1.066406 -21.09375 1.5 -21.609375 2.0625 -22.046875 C 2.625 -22.484375 3.269531 -22.84375 4 -23.125 C 4.738281 -23.414062 5.539062 -23.628906 6.40625 -23.765625 C 7.28125 -23.898438 8.175781 -23.96875 9.09375 -23.96875 C 10.625 -23.96875 12.171875 -23.769531 13.734375 -23.375 C 15.304688 -22.988281 16.734375 -22.425781 18.015625 -21.6875 C 19.222656 -21 20.160156 -20.160156 20.828125 -19.171875 C 21.503906 -18.191406 21.941406 -17.175781 22.140625 -16.125 C 22.347656 -15.070312 22.335938 -14.03125 22.109375 -13 C 21.890625 -11.96875 21.476562 -11.046875 20.875 -10.234375 C 20.28125 -9.429688 19.507812 -8.789062 18.5625 -8.3125 C 17.625 -7.832031 16.535156 -7.625 15.296875 -7.6875 C 14.597656 -7.726562 13.921875 -7.851562 13.265625 -8.0625 C 12.609375 -8.28125 12.003906 -8.578125 11.453125 -8.953125 C 10.898438 -9.335938 10.429688 -9.804688 10.046875 -10.359375 C 9.660156 -10.910156 9.382812 -11.519531 9.21875 -12.1875 C 9.132812 -11.582031 9.03125 -10.914062 8.90625 -10.1875 C 8.789062 -9.457031 8.6875 -8.71875 8.59375 -7.96875 C 8.5 -7.226562 8.429688 -6.5 8.390625 -5.78125 C 8.347656 -5.070312 8.359375 -4.425781 8.421875 -3.84375 C 8.484375 -3.257812 8.609375 -2.757812 8.796875 -2.34375 C 8.992188 -1.925781 9.300781 -1.632812 9.71875 -1.46875 C 9.550781 -1.226562 9.300781 -1.015625 8.96875 -0.828125 C 8.644531 -0.640625 8.269531 -0.484375 7.84375 -0.359375 C 7.414062 -0.242188 6.96875 -0.15625 6.5 -0.09375 C 6.03125 -0.03125 5.566406 0 5.109375 0 C 4.054688 0 3.253906 -0.203125 2.703125 -0.609375 C 2.148438 -1.015625 1.785156 -1.59375 1.609375 -2.34375 C 1.429688 -3.09375 1.421875 -4 1.578125 -5.0625 C 1.734375 -6.132812 1.992188 -7.347656 2.359375 -8.703125 C 2.703125 -9.984375 2.863281 -11.0625 2.84375 -11.9375 C 2.820312 -12.820312 2.546875 -13.519531 2.015625 -14.03125 C 2.429688 -14.6875 3.023438 -15.160156 3.796875 -15.453125 C 4.578125 -15.753906 5.351562 -15.894531 6.125 -15.875 C 6.820312 -15.851562 7.421875 -15.703125 7.921875 -15.421875 C 8.421875 -15.148438 8.875 -14.820312 9.28125 -14.4375 C 9.6875 -14.0625 10.070312 -13.679688 10.4375 -13.296875 C 10.8125 -12.910156 11.21875 -12.585938 11.65625 -12.328125 C 12.09375 -12.078125 12.59375 -11.941406 13.15625 -11.921875 C 13.71875 -11.898438 14.398438 -12.070312 15.203125 -12.4375 C 15.566406 -12.601562 15.847656 -12.8125 16.046875 -13.0625 C 16.253906 -13.320312 16.332031 -13.609375 16.28125 -13.921875 C 16.226562 -14.242188 16.03125 -14.585938 15.6875 -14.953125 C 15.34375 -15.316406 14.800781 -15.710938 14.0625 -16.140625 C 13.082031 -16.691406 11.929688 -17.078125 10.609375 -17.296875 C 9.296875 -17.515625 7.988281 -17.550781 6.6875 -17.40625 C 5.394531 -17.257812 4.207031 -16.929688 3.125 -16.421875 C 2.039062 -15.910156 1.253906 -15.207031 0.765625 -14.3125 Z M 0.765625 -20.5 "/></g></g><g style="fill:#f82553;fill-opacity:1;"><g transform="translate(23.376024, 33.440483)"><path style="stroke:none" d="M 18.875 -6.375 C 18.726562 -7.84375 18.421875 -9.085938 17.953125 -10.109375 C 17.484375 -11.128906 16.945312 -12.023438 16.34375 -12.796875 C 15.738281 -13.578125 15.101562 -14.289062 14.4375 -14.9375 C 13.78125 -15.582031 13.171875 -16.269531 12.609375 -17 C 12.046875 -17.738281 11.582031 -18.578125 11.21875 -19.515625 C 10.863281 -20.453125 10.6875 -21.609375 10.6875 -22.984375 C 11.40625 -22.984375 12.09375 -22.910156 12.75 -22.765625 C 13.414062 -22.617188 14.050781 -22.457031 14.65625 -22.28125 C 15.257812 -22.113281 15.835938 -21.953125 16.390625 -21.796875 C 16.941406 -21.648438 17.460938 -21.578125 17.953125 -21.578125 C 18.441406 -21.578125 18.898438 -21.675781 19.328125 -21.875 C 19.765625 -22.082031 20.164062 -22.453125 20.53125 -22.984375 L 20.53125 0 L 13.609375 0 C 13.867188 -1 13.875 -1.941406 13.625 -2.828125 C 13.382812 -3.722656 12.976562 -4.585938 12.40625 -5.421875 C 11.832031 -6.253906 11.132812 -7.078125 10.3125 -7.890625 C 9.5 -8.710938 8.660156 -9.566406 7.796875 -10.453125 C 6.929688 -11.347656 6.078125 -12.285156 5.234375 -13.265625 C 4.398438 -14.242188 3.675781 -15.304688 3.0625 -16.453125 C 3.226562 -15.003906 3.546875 -13.78125 4.015625 -12.78125 C 4.484375 -11.78125 5.023438 -10.894531 5.640625 -10.125 C 6.253906 -9.363281 6.882812 -8.660156 7.53125 -8.015625 C 8.1875 -7.367188 8.789062 -6.675781 9.34375 -5.9375 C 9.894531 -5.207031 10.347656 -4.367188 10.703125 -3.421875 C 11.066406 -2.484375 11.25 -1.34375 11.25 0 C 10.53125 0 9.832031 -0.0664062 9.15625 -0.203125 C 8.488281 -0.347656 7.851562 -0.507812 7.25 -0.6875 C 6.644531 -0.863281 6.070312 -1.023438 5.53125 -1.171875 C 4.988281 -1.328125 4.472656 -1.40625 3.984375 -1.40625 C 3.492188 -1.40625 3.03125 -1.300781 2.59375 -1.09375 C 2.15625 -0.894531 1.75 -0.53125 1.375 0 L 1.375 -22.984375 L 8.328125 -22.984375 C 8.328125 -21.921875 8.507812 -20.910156 8.875 -19.953125 C 9.25 -19.003906 9.734375 -18.085938 10.328125 -17.203125 C 10.921875 -16.316406 11.597656 -15.445312 12.359375 -14.59375 C 13.128906 -13.75 13.898438 -12.882812 14.671875 -12 C 15.453125 -11.125 16.207031 -10.226562 16.9375 -9.3125 C 17.675781 -8.394531 18.320312 -7.414062 18.875 -6.375 Z M 18.875 -6.375 "/></g></g></g></svg>