<svg xmlns="http://www.w3.org/2000/svg" xmlns:xlink="http://www.w3.org/1999/xlink" width="500" zoomAndPan="magnify" viewBox="0 0 375 374.999991" height="500" preserveAspectRatio="xMidYMid meet" version="1.0"><defs><g/><clipPath id="9abbec53aa"><rect x="0" width="374" y="0" height="198"/></clipPath></defs><g transform="matrix(1, 0, 0, 1, 1, 99)"><g clip-path="url(#9abbec53aa)"><g fill="#514f4c" fill-opacity="1"><g transform="translate(7.657871, 197.471032)"><g><path d="M 0 -23.828125 L 0 -190.671875 L 143 -190.671875 L 143 -166.84375 L 166.84375 -166.84375 L 166.84375 -95.34375 L 143 -95.34375 L 143 -71.5 L 47.671875 -71.5 L 47.671875 -23.828125 Z M 47.671875 -95.34375 L 119.171875 -95.34375 L 119.171875 -166.84375 L 47.671875 -166.84375 Z M 47.671875 -95.34375 "/></g></g></g><g fill="#514f4c" fill-opacity="1"><g transform="translate(198.314172, 197.471032)"><g><path d="M 0 -23.828125 L 0 -190.671875 L 47.671875 -190.671875 L 47.671875 -166.84375 L 71.5 -166.84375 L 71.5 -143 L 95.34375 -143 L 95.34375 -119.171875 L 119.171875 -119.171875 L 119.171875 -190.671875 L 166.84375 -190.671875 L 166.84375 -23.828125 L 119.171875 -23.828125 L 119.171875 -71.5 L 95.34375 -71.5 L 95.34375 -95.34375 L 71.5 -95.34375 L 71.5 -119.171875 L 47.671875 -119.171875 L 47.671875 -23.828125 Z M 0 -23.828125 "/></g></g></g></g></g></svg>